Coordinates
version=1
nRows=17
nColumns=38
inDegrees=no

Units are S.I. units (second, meters, Newtons, ...)
If the header above contains a line with 'inDegrees', this indicates whether rotational values are in degrees (yes) or radians (no).

endheader
time	pelvis_tilt	pelvis_list	pelvis_rotation	pelvis_tx	pelvis_ty	pelvis_tz	hip_flexion_r	hip_adduction_r	hip_rotation_r	knee_angle_r	ankle_angle_r	subtalar_angle_r	mtp_angle_r	hip_flexion_l	hip_adduction_l	hip_rotation_l	knee_angle_l	ankle_angle_l	subtalar_angle_l	mtp_angle_l	lumbar_extension	lumbar_bending	lumbar_rotation	arm_flex_r	arm_add_r	arm_rot_r	elbow_flex_r	pro_sup_r	wrist_flex_r	wrist_dev_r	arm_flex_l	arm_add_l	arm_rot_l	elbow_flex_l	pro_sup_l	wrist_flex_l	wrist_dev_l
10	3.0756	1.24178	-1.1732	0.718416	1.72491	0.940507	-0.233046	0.129278	-0.135037	0.623245	-0.183401	0	0	0.0937478	-0.103404	-0.00858632	0.420258	-0.445586	0	0	-0.557841	0.107576	0.21877	0.806261	-0.316822	0.00370215	1.20244	1.5708	0	0	0.0830681	-0.490158	0.0576509	0.892481	1.5708	0	0
10.01	3.08943	1.245	-1.17651	0.71957	1.71898	0.940861	-0.227711	0.128324	-0.142066	0.615562	-0.180839	0	0	0.0934478	-0.099395	-0.0115118	0.400589	-0.463889	0	0	-0.554376	0.108147	0.21729	0.807333	-0.319812	-0.00201836	1.19579	1.5708	0	0	0.084016	-0.490614	0.0516662	0.913992	1.5708	0	0
10.02	3.10236	1.24873	-1.17906	0.720668	1.71313	0.941214	-0.221768	0.127217	-0.149024	0.60806	-0.178754	0	0	0.0949055	-0.0960882	-0.0152811	0.382951	-0.480328	0	0	-0.550411	0.108516	0.215329	0.808493	-0.323322	-0.00651037	1.18915	1.5708	0	0	0.0844866	-0.491277	0.0454154	0.935171	1.5708	0	0
10.03	3.11328	1.25287	-1.18037	0.721739	1.70729	0.941548	-0.214761	0.126254	-0.154778	0.601325	-0.177259	0	0	0.0988229	-0.0938481	-0.0202852	0.369363	-0.491618	0	0	-0.546103	0.108989	0.213556	0.809843	-0.326698	-0.00990937	1.18255	1.5708	0	0	0.0846349	-0.491995	0.039053	0.955927	1.5708	0	0
10.04	3.12229	1.2567	-1.1805	0.722781	1.70151	0.941928	-0.207924	0.125911	-0.159115	0.594453	-0.176156	0	0	0.10415	-0.0929449	-0.0259462	0.360728	-0.495339	0	0	-0.542094	0.109865	0.212106	0.811303	-0.329738	-0.0128933	1.17615	1.5708	0	0	0.0845937	-0.492614	0.0324226	0.97596	1.5708	0	0
10.05	3.13046	1.26003	-1.17944	0.723779	1.69586	0.942361	-0.202078	0.126397	-0.163054	0.586457	-0.175464	0	0	0.110494	-0.0933642	-0.0330295	0.358196	-0.491526	0	0	-0.538442	0.111138	0.210176	0.812378	-0.332248	-0.0162563	1.17031	1.5708	0	0	0.0845898	-0.49348	0.0256726	0.995199	1.5708	0	0
10.06	3.1387	1.26294	-1.17825	0.724742	1.69029	0.94286	-0.196847	0.127262	-0.165914	0.578346	-0.175367	0	0	0.117195	-0.094483	-0.040017	0.361824	-0.478581	0	0	-0.535347	0.112374	0.207666	0.813357	-0.334147	-0.019939	1.16491	1.5708	0	0	0.084409	-0.494164	0.0175919	1.01399	1.5708	0	0
10.07	-3.13456	1.26476	-1.17928	0.725647	1.68474	0.943499	-0.192718	0.127763	-0.16789	0.570742	-0.176028	0	0	0.12208	-0.0953112	-0.0457442	0.369505	-0.455383	0	0	-0.533796	0.113473	0.205424	0.814664	-0.336009	-0.0236136	1.15988	1.5708	0	0	0.0847581	-0.49455	0.00932371	1.03158	1.5708	0	0
10.08	-3.12195	1.2652	-1.18362	0.726565	1.67919	0.944319	-0.190157	0.127664	-0.169227	0.563475	-0.177105	0	0	0.123812	-0.0955021	-0.0503628	0.378293	-0.427436	0	0	-0.534174	0.114031	0.203819	0.815867	-0.338067	-0.0270435	1.15566	1.5708	0	0	0.0865682	-0.495288	0.00254578	1.04691	1.5708	0	0
10.09	-3.11138	1.26509	-1.18655	0.727458	1.67371	0.945154	-0.187998	0.128061	-0.170347	0.556176	-0.178567	0	0	0.12465	-0.0956497	-0.0469773	0.397259	-0.388596	0	0	-0.534843	0.114994	0.202662	0.816698	-0.34019	-0.0296712	1.15193	1.5708	0	0	0.0887099	-0.496108	-0.0038516	1.0609	1.5708	0	0
10.1	-3.09096	1.26337	-1.20035	0.728433	1.66832	0.946628	-0.189418	0.1256	-0.171618	0.547528	-0.181072	0	0	0.118982	-0.0940368	-0.0567463	0.395212	-0.368979	0	0	-0.538795	0.112539	0.201914	0.81685	-0.341904	-0.0338388	1.14873	1.5708	0	0	0.0928586	-0.497817	-0.00803638	1.07295	1.5708	0	0
10.11	-3.0719	1.26106	-1.2133	0.729293	1.66303	0.948094	-0.191641	0.123086	-0.173321	0.538694	-0.184844	0	0	0.112434	-0.0929178	-0.0592617	0.402339	-0.349507	0	0	-0.542956	0.11054	0.201536	0.816715	-0.343609	-0.0379826	1.14596	1.5708	0	0	0.0971881	-0.499469	-0.0118722	1.08414	1.5708	0	0
10.12	-3.05328	1.25851	-1.22637	0.730069	1.65786	0.949576	-0.194274	0.120114	-0.175587	0.529802	-0.189389	0	0	0.105661	-0.092693	-0.0617173	0.412401	-0.332562	0	0	-0.54704	0.108437	0.201394	0.816255	-0.345252	-0.0420559	1.14333	1.5708	0	0	0.101781	-0.501097	-0.0152176	1.09428	1.5708	0	0
10.13	-3.03696	1.2562	-1.23738	0.730807	1.65282	0.950984	-0.196456	0.11745	-0.178419	0.520873	-0.194444	0	0	0.100176	-0.094076	-0.0641293	0.426108	-0.318456	0	0	-0.550224	0.106736	0.201492	0.815512	-0.346925	-0.046077	1.1405	1.5708	0	0	0.106715	-0.50346	-0.0167832	1.10326	1.5708	0	0
10.14	-3.02418	1.25492	-1.24483	0.731528	1.64791	0.952227	-0.197188	0.115485	-0.180749	0.512397	-0.199537	0	0	0.0974725	-0.0974776	-0.0671008	0.443585	-0.306304	0	0	-0.55147	0.105595	0.201575	0.813973	-0.348216	-0.0503562	1.13758	1.5708	0	0	0.111773	-0.506477	-0.0170166	1.1114	1.5708	0	0
10.15	-3.01538	1.25478	-1.24837	0.732182	1.64311	0.953272	-0.196269	0.114233	-0.182421	0.504615	-0.204653	0	0	0.0979127	-0.10316	-0.071314	0.465313	-0.29566	0	0	-0.550833	0.105142	0.201721	0.811767	-0.349712	-0.0544601	1.13467	1.5708	0	0	0.1166	-0.50968	-0.0168431	1.11919	1.5708	0	0
10.16	-3.00928	1.25516	-1.24967	0.732675	1.63841	0.954158	-0.194359	0.112934	-0.183981	0.497854	-0.209533	0	0	0.100355	-0.11067	-0.077005	0.491437	-0.285924	0	0	-0.549094	0.105332	0.202125	0.809241	-0.351659	-0.0579569	1.13182	1.5708	0	0	0.121019	-0.512915	-0.0163359	1.12654	1.5708	0	0
